<svg xmlns="http://www.w3.org/2000/svg" viewBox="0 0 100 100">
<rect width="100" height="100" fill="#451d17"/>
<ellipse cx="50" cy="90" rx="23" ry="6" fill="#000" opacity="0.22"/>
<path d="M50 29 L69 44 L64 73 L36 73 L31 44 Z" fill="#f25437" stroke="#682316" stroke-width="1.55"/>
<path d="M50 34 L62 45 L59 63 L41 63 L38 45 Z" fill="#f8b447" opacity="0.92"/>
<path d="M34 52 L24 56 L28 66 L37 60 Z" fill="#8f2f1d"/>
<path d="M66 52 L76 56 L72 66 L63 60 Z" fill="#8f2f1d"/>
<rect x="42" y="74" width="6" height="9" rx="2" fill="#7f1d1d"/>
<rect x="52" y="74" width="6" height="9" rx="2" fill="#7f1d1d"/>
<path d="M50 34 L56 28 L60 35" fill="none" stroke="#fde047" stroke-width="1.5"/>
<path d="M42 49 L47 46 L42 43 Z" fill="#fff"/><path d="M58 49 L53 46 L58 43 Z" fill="#fff"/>
<rect x="47" y="55" width="6" height="3" rx="1" fill="#2b0f0a"/>
</svg>
