<svg xmlns="http://www.w3.org/2000/svg" viewBox="0 0 100 100">
<rect width="100" height="100" fill="#351814"/>
<ellipse cx="50" cy="90" rx="23" ry="6" fill="#000" opacity="0.22"/>
<path d="M50 30 L68 44 L63 72 L37 72 L32 44 Z" fill="#de4d2d" stroke="#682316" stroke-width="1.5"/>
<path d="M50 35 L61 45 L58 62 L42 62 L39 45 Z" fill="#f5a03b" opacity="0.9"/>
<path d="M35 53 L25 57 L29 66 L37 61 Z" fill="#8f2f1d"/>
<path d="M65 53 L75 57 L71 66 L63 61 Z" fill="#8f2f1d"/>
<rect x="42" y="74" width="6" height="9" rx="2" fill="#7f1d1d"/>
<rect x="52" y="74" width="6" height="9" rx="2" fill="#7f1d1d"/>
<path d="M42 50 L47 47 L42 44 Z" fill="#fff"/><path d="M58 50 L53 47 L58 44 Z" fill="#fff"/>
<rect x="47" y="55" width="6" height="3" rx="1" fill="#2b0f0a"/>
</svg>
