<svg xmlns="http://www.w3.org/2000/svg" viewBox="0 0 100 100"><rect width="100" height="100" fill="#1a0c3f"/><circle cx="16" cy="18" r="1.2" fill="#67e8f9"/><circle cx="84" cy="82" r="1.2" fill="#f472b6"/><rect x="31" y="30" width="38" height="44" rx="10" fill="#c084fc" stroke="#67e8f9" stroke-width="1.4"/><path d="M39 30 L34 13 L46 26 Z" fill="#22d3ee"/><path d="M61 30 L66 13 L54 26 Z" fill="#22d3ee"/><path d="M31 54 L20 58 L22 65 L31 61 Z" fill="#0ea5e9"/><path d="M69 54 L80 58 L78 65 L69 61 Z" fill="#0ea5e9"/><rect x="40" y="74" width="6" height="10" rx="2" fill="#2563eb"/><rect x="54" y="74" width="6" height="10" rx="2" fill="#2563eb"/><path d="M42 42 H58" stroke="#f472b6" stroke-width="1.6"/><rect x="44" y="63" width="12" height="7" rx="2" fill="#9333ea" stroke="#e9d5ff" stroke-width="0.8"/><rect x="32" y="54" width="36" height="5" rx="2" fill="#67e8f9" stroke="#0f172a" stroke-width="0.8"/><rect x="68" y="53" width="8" height="7" rx="1.5" fill="#f0abfc" stroke="#0f172a" stroke-width="0.8"/><rect x="48" y="59" width="4" height="7" rx="1" fill="#0f172a"/><rect x="42" y="46" width="16" height="11" rx="2" fill="#0f172a" stroke="#67e8f9"/><circle cx="46" cy="51" r="1.8" fill="#67e8f9"/><circle cx="54" cy="51" r="1.8" fill="#67e8f9"/><path d="M46 57 H54" stroke="#22d3ee" stroke-width="1.2"/></svg>
