<svg xmlns="http://www.w3.org/2000/svg" viewBox="0 0 100 100">
<defs>
  <radialGradient id="bg4" cx="50%" cy="28%" r="88%">
    <stop offset="0%" stop-color="#d8d2c8"/>
    <stop offset="100%" stop-color="#596273"/>
  </radialGradient>
</defs>
<rect width="100" height="100" fill="url(#bg4)"/>


<ellipse cx="50" cy="92" rx="24" ry="6" fill="#000" opacity="0.15"/>
<circle cx="50" cy="49" r="24" fill="#4f5863" stroke="#232a33" stroke-width="2.1"/>



<path d="M35 38 C30 34,29 24,34 18 C39 13,48 16,47 26 C46 32,40 32,38 28 C36 25,38 22,42 23" fill="none" stroke="#7a8794" stroke-width="2.1" stroke-linecap="round"/>
<path d="M65 38 C70 34,71 24,66 18 C61 13,52 16,53 26 C54 32,60 32,62 28 C64 25,62 22,58 23" fill="none" stroke="#7a8794" stroke-width="2.1" stroke-linecap="round"/>
<rect x="20" y="48" width="13" height="5.5" rx="2" fill="#5e6570"/>
<rect x="67" y="48" width="13" height="5.5" rx="2" fill="#5e6570"/>
<rect x="36" y="70" width="6.3" height="12" rx="2" fill="#505661"/>
<rect x="57.7" y="70" width="6.3" height="12" rx="2" fill="#505661"/>
<path d="M44 39 H56" stroke="#c4c7ce" stroke-width="1.6"/>
<rect x="46" y="58" width="8" height="6" rx="2" fill="#7a8794"/>
<path d="M40 43 Q50 37 60 43 Q57.5 65 50 69 Q42.5 65 40 43 Z" fill="#d8d9dc"/>
<path d="M44.8 48.5 Q50 46.2 55.2 48.5 Q54.2 57.8 50 60 Q45.8 57.8 44.8 48.5 Z" fill="#24374a"/>
<path d="M45.8 51.8 L48.3 50.4 L46 49.1 Z" fill="#b6e8ff"/>
<path d="M54 51.8 L51.7 50.4 L54.1 49.1 Z" fill="#b6e8ff"/>
</svg>
