<svg xmlns="http://www.w3.org/2000/svg" viewBox="0 0 100 100"><defs><radialGradient id="bg1" cx="50%" cy="30%" r="82%"><stop offset="0%" stop-color="#f6f1e6"/><stop offset="100%" stop-color="#dccfb7"/></radialGradient></defs><rect width="100" height="100" fill="url(#bg1)"/><ellipse cx="50" cy="90" rx="22" ry="5" fill="#000" opacity="0.12"/><circle cx="50" cy="53" r="21" fill="#6f5b47" stroke="#3a2f26" stroke-width="1.8"/><path d="M38 42 C33 38,32 30,37 24 C42 19,48 22,47 29 C46 35,40 35,38 31 C36 28,38 25,42 26" fill="none" stroke="#8f7a63" stroke-width="1.8" stroke-linecap="round"/><path d="M62 42 C67 38,68 30,63 24 C58 19,52 22,53 29 C54 35,60 35,62 31 C64 28,62 25,58 26" fill="none" stroke="#8f7a63" stroke-width="1.8" stroke-linecap="round"/><path d="M41 46 Q50 42 59 46 Q57 62 50 66 Q43 62 41 46 Z" fill="#d7c9b3"/><path d="M45 50 Q50 48 55 50 Q54 56 50 58 Q46 56 45 50 Z" fill="#2a3b4f"/><path d="M46 52.8 L48.3 51.5 L46.2 50.2 Z" fill="#9dd6ef"/><path d="M53.8 52.8 L51.7 51.5 L53.9 50.2 Z" fill="#9dd6ef"/></svg>
