<svg xmlns="http://www.w3.org/2000/svg" viewBox="0 0 100 100">
<defs>
  <radialGradient id="bg3" cx="50%" cy="30%" r="85%">
    <stop offset="0%" stop-color="#f0e5d2"/>
    <stop offset="100%" stop-color="#a98f67"/>
  </radialGradient>
</defs>
<rect width="100" height="100" fill="url(#bg3)"/>


<ellipse cx="50" cy="92" rx="24" ry="5.5" fill="#000" opacity="0.14"/>
<circle cx="50" cy="50" r="23" fill="#5f5e64" stroke="#2c2d33" stroke-width="2"/>


<path d="M36 39 C31 35,30 26,35 20 C40 15,48 18,47 27 C46 33,40 33,38 29 C36 26,38 23,42 24" fill="none" stroke="#7f828c" stroke-width="2" stroke-linecap="round"/>
<path d="M64 39 C69 35,70 26,65 20 C60 15,52 18,53 27 C54 33,60 33,62 29 C64 26,62 23,58 24" fill="none" stroke="#7f828c" stroke-width="2" stroke-linecap="round"/>
<rect x="22" y="49" width="12" height="5.2" rx="2" fill="#6a6660"/>
<rect x="66" y="49" width="12" height="5.2" rx="2" fill="#6a6660"/>
<rect x="37" y="70" width="6" height="11" rx="2" fill="#57504a"/>
<rect x="57" y="70" width="6" height="11" rx="2" fill="#57504a"/>
<path d="M41 44 Q50 39 59 44 Q57 64 50 68 Q43 64 41 44 Z" fill="#d5d4d1"/>
<path d="M45 49 Q50 46.8 55 49 Q54 57.2 50 59.2 Q46 57.2 45 49 Z" fill="#2c3d52"/>
<path d="M46 52.2 L48.4 50.9 L46.2 49.6 Z" fill="#a7def5"/>
<path d="M53.8 52.2 L51.6 50.9 L53.9 49.6 Z" fill="#a7def5"/>
</svg>
