<svg xmlns="http://www.w3.org/2000/svg" viewBox="0 0 100 100">
<defs>
  <radialGradient id="bg5" cx="50%" cy="24%" r="90%">
    <stop offset="0%" stop-color="#d4d6db"/>
    <stop offset="100%" stop-color="#33445f"/>
  </radialGradient>
  <filter id="shine" x="-30%" y="-30%" width="160%" height="160%">
    <feGaussianBlur stdDeviation="1.4" result="b"/>
    <feMerge><feMergeNode in="b"/><feMergeNode in="SourceGraphic"/></feMerge>
  </filter>
</defs>
<rect width="100" height="100" fill="url(#bg5)"/>


<path d="M14 20 L18 27 L11 27 Z" fill="#f8e4c3" opacity="0.72"/>
<path d="M86 20 L90 27 L83 27 Z" fill="#cfe4fa" opacity="0.72"/>
<circle cx="20" cy="80" r="1.6" fill="#dcefff" opacity="0.6"/>
<circle cx="80" cy="80" r="1.6" fill="#f7e3bf" opacity="0.6"/>
<ellipse cx="50" cy="93" rx="25" ry="6" fill="#000" opacity="0.16"/>
<circle cx="50" cy="48" r="24.8" fill="#394657" stroke="#141a22" stroke-width="2.2"/>




<path d="M35 36 C29 32,28 21,34 15 C40 10,49 13,48 24 C47 31,40 31,38 26 C36 22,39 19,43 21" fill="none" stroke="#9fb1c8" stroke-width="2.2" stroke-linecap="round"/>
<path d="M65 36 C71 32,72 21,66 15 C60 10,51 13,52 24 C53 31,60 31,62 26 C64 22,61 19,57 21" fill="none" stroke="#9fb1c8" stroke-width="2.2" stroke-linecap="round"/>
<rect x="18" y="47" width="14" height="6" rx="2" fill="#4f5f73"/>
<rect x="68" y="47" width="14" height="6" rx="2" fill="#4f5f73"/>
<rect x="35" y="70" width="6.5" height="12" rx="2" fill="#4f5f73"/>
<rect x="58.5" y="70" width="6.5" height="12" rx="2" fill="#4f5f73"/>
<path d="M43 38 L50 30 L57 38" fill="none" stroke="#c8d6ea" stroke-width="1.8"/>
<rect x="45" y="58" width="10" height="7" rx="2" fill="#718399"/>
<path d="M39 42 Q50 35 61 42 Q58 66 50 71 Q42 66 39 42 Z" fill="#e1e4ea"/>
<path d="M44.5 48 Q50 45.5 55.5 48 Q54.5 58.5 50 61 Q45.5 58.5 44.5 48 Z" fill="#203244"/>
<path d="M45.8 51.5 L48.5 50 L46 48.6 Z" fill="#c3efff"/>
<path d="M54.2 51.5 L51.5 50 L54 48.6 Z" fill="#c3efff"/>
</svg>
