<svg xmlns="http://www.w3.org/2000/svg" viewBox="0 0 100 100">
<defs>
  <linearGradient id="bg2" x1="0%" y1="0%" x2="100%" y2="100%">
    <stop offset="0%" stop-color="#f6efe0"/>
    <stop offset="100%" stop-color="#d5c0a0"/>
  </linearGradient>
  <pattern id="p2" width="8" height="8" patternUnits="userSpaceOnUse">
    <path d="M0 8 L8 0" stroke="#ffffff" stroke-opacity="0.18" stroke-width="1"/>
  </pattern>
</defs>
<rect width="100" height="100" fill="url(#bg2)"/>
<rect width="100" height="100" fill="url(#p2)"/>
<ellipse cx="50" cy="91" rx="23" ry="5" fill="#000" opacity="0.14"/>
<circle cx="50" cy="52" r="22.5" fill="#6a5f54" stroke="#352e28" stroke-width="1.9"/>
<path d="M37 41 C32 37,31 28,36 22 C41 17,48 20,47 28 C46 34,40 34,38 30 C36 27,38 24,42 25" fill="none" stroke="#8a837a" stroke-width="1.9" stroke-linecap="round"/>
<path d="M63 41 C68 37,69 28,64 22 C59 17,52 20,53 28 C54 34,60 34,62 30 C64 27,62 24,58 25" fill="none" stroke="#8a837a" stroke-width="1.9" stroke-linecap="round"/>
<rect x="24" y="50" width="11" height="5" rx="2" fill="#7a6c5d"/>
<rect x="65" y="50" width="11" height="5" rx="2" fill="#7a6c5d"/>
<path d="M41 45 Q50 40 59 45 Q57 63 50 67 Q43 63 41 45 Z" fill="#d8d0c4"/>
<path d="M45 49.5 Q50 47.5 55 49.5 Q54 56.5 50 58.5 Q46 56.5 45 49.5 Z" fill="#2a3b4f"/>
<path d="M46 52.5 L48.3 51.2 L46.2 49.9 Z" fill="#9dd6ef"/>
<path d="M53.8 52.5 L51.7 51.2 L53.9 49.9 Z" fill="#9dd6ef"/>
</svg>
