<svg xmlns="http://www.w3.org/2000/svg" viewBox="0 0 800 450">
  <defs>
    <linearGradient id="bg" x1="0%" y1="0%" x2="100%" y2="100%">
      <stop offset="0%" stop-color="#0a1628"/>
      <stop offset="100%" stop-color="#0f2010"/>
    </linearGradient>
    <linearGradient id="vaultGrad" x1="0%" y1="0%" x2="0%" y2="100%">
      <stop offset="0%" stop-color="#1e3a2f"/>
      <stop offset="100%" stop-color="#0d2318"/>
    </linearGradient>
    <linearGradient id="keyGrad" x1="0%" y1="0%" x2="100%" y2="0%">
      <stop offset="0%" stop-color="#f59e0b"/>
      <stop offset="100%" stop-color="#fbbf24"/>
    </linearGradient>
    <filter id="glow">
      <feGaussianBlur stdDeviation="4" result="blur"/>
      <feMerge><feMergeNode in="blur"/><feMergeNode in="SourceGraphic"/></feMerge>
    </filter>
  </defs>
  <rect width="800" height="450" fill="url(#bg)"/>
  <g stroke="#0d2010" stroke-width="1" opacity="0.8">
    <line x1="0" y1="75" x2="800" y2="75"/><line x1="0" y1="150" x2="800" y2="150"/>
    <line x1="0" y1="225" x2="800" y2="225"/><line x1="0" y1="300" x2="800" y2="300"/>
    <line x1="0" y1="375" x2="800" y2="375"/>
    <line x1="100" y1="0" x2="100" y2="450"/><line x1="200" y1="0" x2="200" y2="450"/>
    <line x1="300" y1="0" x2="300" y2="450"/><line x1="400" y1="0" x2="400" y2="450"/>
    <line x1="500" y1="0" x2="500" y2="450"/><line x1="600" y1="0" x2="600" y2="450"/>
    <line x1="700" y1="0" x2="700" y2="450"/>
  </g>
  <rect x="130" y="90" width="300" height="270" rx="16" fill="url(#vaultGrad)" stroke="#10b981" stroke-width="2"/>
  <circle cx="280" cy="225" r="90" fill="none" stroke="#1a4030" stroke-width="12"/>
  <circle cx="280" cy="225" r="90" fill="none" stroke="#10b981" stroke-width="2" opacity="0.6"/>
  <g stroke="#10b981" stroke-width="3" opacity="0.5" stroke-linecap="round">
    <line x1="280" y1="135" x2="280" y2="165"/><line x1="280" y1="285" x2="280" y2="315"/>
    <line x1="190" y1="225" x2="220" y2="225"/><line x1="340" y1="225" x2="370" y2="225"/>
    <line x1="216" y1="161" x2="237" y2="182"/><line x1="323" y1="268" x2="344" y2="289"/>
    <line x1="344" y1="161" x2="323" y2="182"/><line x1="237" y1="268" x2="216" y2="289"/>
  </g>
  <circle cx="280" cy="225" r="32" fill="#0a1a12" stroke="#10b981" stroke-width="2"/>
  <circle cx="280" cy="225" r="14" fill="none" stroke="#10b981" stroke-width="2.5" opacity="0.9"/>
  <rect x="273" y="225" width="14" height="14" rx="2" fill="#10b981" opacity="0.9"/>
  <circle cx="395" cy="225" r="18" fill="#0d2318" stroke="#10b981" stroke-width="2"/>
  <circle cx="395" cy="225" r="8" fill="#10b981" opacity="0.7"/>
  <text x="280" y="78" text-anchor="middle" fill="#10b981" font-family="monospace" font-size="10" letter-spacing="4" opacity="0.8">VAULT</text>
  <text x="280" y="375" text-anchor="middle" fill="#334155" font-family="monospace" font-size="9">rotation · lease · revoke</text>
  <g transform="translate(500, 80)">
    <rect x="0" y="0" width="230" height="52" rx="6" fill="#0a1628" stroke="#f59e0b" stroke-width="1.2"/>
    <text x="12" y="16" fill="#f59e0b" font-family="monospace" font-size="8" letter-spacing="2">API KEY</text>
    <text x="12" y="32" fill="#94a3b8" font-family="monospace" font-size="9">sk_live_xxxxxxxxxxxxxx</text>
    <circle cx="218" cy="26" r="5" fill="#10b981" opacity="0.8"/>
    <text x="155" y="44" fill="#10b981" font-family="monospace" font-size="7">ROTATED</text>
    <rect x="0" y="64" width="230" height="52" rx="6" fill="#0a1628" stroke="#818cf8" stroke-width="1.2"/>
    <text x="12" y="80" fill="#818cf8" font-family="monospace" font-size="8" letter-spacing="2">DB PASSWORD</text>
    <text x="12" y="96" fill="#94a3b8" font-family="monospace" font-size="9">postgres://xxxx@host:5432</text>
    <circle cx="218" cy="90" r="5" fill="#f59e0b" opacity="0.8"/>
    <text x="150" y="108" fill="#f59e0b" font-family="monospace" font-size="7">EXPIRES 7d</text>
    <rect x="0" y="128" width="230" height="52" rx="6" fill="#0a1628" stroke="#22d3ee" stroke-width="1.2"/>
    <text x="12" y="144" fill="#22d3ee" font-family="monospace" font-size="8" letter-spacing="2">TLS CERTIFICATE</text>
    <text x="12" y="160" fill="#94a3b8" font-family="monospace" font-size="9">*.example.com — RSA 4096</text>
    <circle cx="218" cy="154" r="5" fill="#10b981" opacity="0.8"/>
    <text x="155" y="172" fill="#10b981" font-family="monospace" font-size="7">VALID 89d</text>
    <rect x="0" y="192" width="230" height="52" rx="6" fill="#0a1628" stroke="#a855f7" stroke-width="1.2"/>
    <text x="12" y="208" fill="#a855f7" font-family="monospace" font-size="8" letter-spacing="2">JWT SECRET</text>
    <text x="12" y="224" fill="#94a3b8" font-family="monospace" font-size="9">HS256 · 256-bit · env inject</text>
    <circle cx="218" cy="218" r="5" fill="#10b981" opacity="0.8"/>
    <text x="145" y="236" fill="#10b981" font-family="monospace" font-size="7">NEVER IN CODE</text>
    <rect x="0" y="256" width="230" height="52" rx="6" fill="#0a1628" stroke="#ef4444" stroke-width="1.2"/>
    <text x="12" y="272" fill="#ef4444" font-family="monospace" font-size="8" letter-spacing="2">SSH KEY</text>
    <text x="12" y="288" fill="#94a3b8" font-family="monospace" font-size="9">ed25519 — deploy key</text>
    <circle cx="218" cy="282" r="5" fill="#f59e0b" opacity="0.8"/>
    <text x="130" y="300" fill="#f59e0b" font-family="monospace" font-size="7">ROTATE PENDING</text>
  </g>
  <line x1="430" y1="225" x2="498" y2="225" stroke="#10b981" stroke-width="1.5" stroke-dasharray="4,3" opacity="0.5"/>
  <g transform="translate(60, 25)" filter="url(#glow)">
    <circle cx="20" cy="20" r="10" fill="none" stroke="#f59e0b" stroke-width="2.5"/>
    <line x1="28" y1="26" x2="50" y2="48" stroke="#f59e0b" stroke-width="2.5" stroke-linecap="round"/>
    <line x1="40" y1="40" x2="40" y2="48" stroke="#f59e0b" stroke-width="2" stroke-linecap="round"/>
    <line x1="46" y1="34" x2="46" y2="42" stroke="#f59e0b" stroke-width="2" stroke-linecap="round"/>
  </g>
  <text x="280" y="420" text-anchor="middle" fill="#475569" font-family="monospace" font-size="10">Vault · rotation · least privilege</text>
  <text x="614" y="420" text-anchor="middle" fill="#10b981" font-family="monospace" font-size="9" opacity="0.6">zero secrets in code</text>
</svg>
