<svg xmlns="http://www.w3.org/2000/svg" viewBox="0 0 800 450" role="img" aria-labelledby="t">
  <title id="t">Shift-left DevSecOps</title>
  <defs>
    <linearGradient id="bg" x1="0%" y1="0%" x2="100%" y2="100%">
      <stop offset="0%" style="stop-color:#0f172a"/>
      <stop offset="50%" style="stop-color:#1e1b4b"/>
      <stop offset="100%" style="stop-color:#312e81"/>
    </linearGradient>
    <linearGradient id="accent" x1="0%" y1="0%" x2="100%" y2="0%">
      <stop offset="0%" style="stop-color:#34d399"/>
      <stop offset="100%" style="stop-color:#818cf8"/>
    </linearGradient>
  </defs>
  <rect width="800" height="450" fill="url(#bg)"/>
  <g opacity="0.15" fill="#fff">
    <circle cx="120" cy="100" r="80"/><circle cx="680" cy="380" r="120"/>
  </g>
  <path d="M80 220 L200 220 L200 180 L320 225 L200 270 L200 230 L80 230 Z" fill="url(#accent)" opacity="0.9"/>
  <path d="M340 225 L460 225 L460 185 L580 225 L460 265 L460 235 L340 235 Z" fill="url(#accent)" opacity="0.65"/>
  <path d="M600 225 L720 225 L720 185 L760 225 L720 265 L720 235 L600 235 Z" fill="url(#accent)" opacity="0.4"/>
  <rect x="100" y="320" width="600" height="6" rx="3" fill="#334155" opacity="0.8"/>
  <rect x="100" y="320" width="180" height="6" rx="3" fill="url(#accent)"/>
  <text x="400" y="400" text-anchor="middle" fill="#94a3b8" font-family="system-ui,sans-serif" font-size="22" font-weight="600">Shift-left</text>
</svg>
