<svg xmlns="http://www.w3.org/2000/svg" viewBox="0 0 800 450" role="img" aria-labelledby="t">
  <title id="t">Главная Hackpet: прогресс, питомец и фокус</title>
  <defs>
    <linearGradient id="bg" x1="0%" y1="0%" x2="100%" y2="100%">
      <stop offset="0%" style="stop-color:#0f172a"/>
      <stop offset="50%" style="stop-color:#1e1b4b"/>
      <stop offset="100%" style="stop-color:#312e81"/>
    </linearGradient>
    <linearGradient id="a" x1="0%" y1="0%" x2="100%" y2="0%">
      <stop offset="0%" style="stop-color:#22d3ee"/>
      <stop offset="100%" style="stop-color:#818cf8"/>
    </linearGradient>
  </defs>
  <rect width="800" height="450" fill="url(#bg)"/>
  <g opacity="0.13" fill="#fff"><circle cx='110' cy='80' r='64'/><circle cx='710' cy='372' r='110'/></g>
<rect x="70" y="62" width="660" height="46" rx="12" fill="#111827" stroke="#334155"/>
<circle cx="98" cy="85" r="13" fill="#0b1220" stroke="#6366f1"/>
<rect x="122" y="79" width="160" height="13" rx="6" fill="url(#a)"/>
<rect x="600" y="79" width="110" height="13" rx="6" fill="#374151"/>
<rect x="70" y="130" width="300" height="240" rx="16" fill="#111827" stroke="#334155"/>
<circle cx="158" cy="250" r="58" fill="none" stroke="#334155" stroke-width="16"/>
<circle cx="158" cy="250" r="58" fill="none" stroke="url(#a)" stroke-width="16" stroke-linecap="round" stroke-dasharray="219 365" transform="rotate(-90 158 250)"/>
<text x="158" y="259" text-anchor="middle" fill="#e2e8f0" font-family="system-ui,sans-serif" font-size="27" font-weight="700">60%</text>
<rect x="250" y="222" width="94" height="12" rx="6" fill="#374151"/>
<rect x="250" y="246" width="66" height="12" rx="6" fill="#475569"/>
<rect x="250" y="270" width="84" height="12" rx="6" fill="#374151"/>
<text x="94" y="160" text-anchor="start" fill="#93c5fd" font-family="system-ui,sans-serif" font-size="15" font-weight="700">Прогресс</text>
<rect x="390" y="130" width="340" height="118" rx="16" fill="#111827" stroke="#334155"/>
<circle cx="450" cy="189" r="33" fill="#0b1220" stroke="#6366f1"/>
<path d="M 450.0 170.0 L 454.7 182.5 L 468.1 183.1 L 457.6 191.5 L 461.2 204.4 L 450.0 197.0 L 438.8 204.4 L 442.4 191.5 L 431.9 183.1 L 445.3 182.5 Z" fill="#e2e8f0"/>
<rect x="500" y="166" width="150" height="13" rx="6" fill="url(#a)"/>
<rect x="500" y="192" width="190" height="10" rx="5" fill="#334155"/>
<rect x="500" y="192" width="120" height="10" rx="5" fill="#22d3ee"/>
<text x="500" y="224" text-anchor="start" fill="#94a3b8" font-family="system-ui,sans-serif" font-size="13" font-weight="600">Hackpet · уровень 7</text>
<rect x="390" y="262" width="340" height="108" rx="16" fill="#111827" stroke="#334155"/>
<text x="412" y="292" text-anchor="start" fill="#93c5fd" font-family="system-ui,sans-serif" font-size="14" font-weight="700">Продолжить обучение</text>
<rect x="412" y="306" width="210" height="10" rx="5" fill="#374151"/>
<rect x="412" y="330" width="150" height="30" rx="9" fill="url(#a)"/>
<text x="487" y="350" text-anchor="middle" fill="#0f172a" font-family="system-ui,sans-serif" font-size="13" font-weight="700">Продолжить</text>
</svg>
