<svg xmlns="http://www.w3.org/2000/svg" viewBox="0 0 800 450" role="img" aria-labelledby="t">
  <title id="t">Достижения и сертификаты</title>
  <defs>
    <linearGradient id="bg" x1="0%" y1="0%" x2="100%" y2="100%">
      <stop offset="0%" style="stop-color:#0f172a"/>
      <stop offset="50%" style="stop-color:#1e1b4b"/>
      <stop offset="100%" style="stop-color:#312e81"/>
    </linearGradient>
    <linearGradient id="a" x1="0%" y1="0%" x2="100%" y2="0%">
      <stop offset="0%" style="stop-color:#22d3ee"/>
      <stop offset="100%" style="stop-color:#818cf8"/>
    </linearGradient>
  </defs>
  <rect width="800" height="450" fill="url(#bg)"/>
  <g opacity="0.13" fill="#fff"><circle cx='110' cy='80' r='64'/><circle cx='710' cy='372' r='110'/></g>
<circle cx="180" cy="135" r="44" fill="#111827" stroke="#818cf8" stroke-width="3"/>
<circle cx="180" cy="135" r="30" fill="url(#a)" opacity="0.18"/>
<path d="M 180.0 115.0 L 184.4 126.9 L 197.1 127.4 L 187.2 135.3 L 190.6 147.6 L 180.0 140.6 L 169.4 147.6 L 172.8 135.3 L 162.9 127.4 L 175.6 126.9 Z" fill="#fcd34d"/>
<circle cx="320" cy="135" r="44" fill="#111827" stroke="#818cf8" stroke-width="3"/>
<circle cx="320" cy="135" r="30" fill="url(#a)" opacity="0.18"/>
<path d="M 320.0 115.0 L 324.4 126.9 L 337.1 127.4 L 327.2 135.3 L 330.6 147.6 L 320.0 140.6 L 309.4 147.6 L 312.8 135.3 L 302.9 127.4 L 315.6 126.9 Z" fill="#fcd34d"/>
<circle cx="460" cy="135" r="44" fill="#111827" stroke="#475569" stroke-width="3"/>
<rect x="448" y="126" width="24" height="19" rx="3" fill="#475569"/>
<path d="M453 126 v-7 a7 7 0 0 1 14 0 v7" fill="none" stroke="#475569" stroke-width="3"/>
<circle cx="600" cy="135" r="44" fill="#111827" stroke="#475569" stroke-width="3"/>
<rect x="588" y="126" width="24" height="19" rx="3" fill="#475569"/>
<path d="M593 126 v-7 a7 7 0 0 1 14 0 v7" fill="none" stroke="#475569" stroke-width="3"/>
<rect x="220" y="240" width="360" height="124" rx="16" fill="#0b1220" stroke="#6366f1"/>
<circle cx="282" cy="300" r="34" fill="url(#a)"/>
<path d="M 282.0 283.0 L 285.7 292.9 L 296.3 293.4 L 288.0 299.9 L 290.8 310.1 L 282.0 304.3 L 273.2 310.1 L 276.0 299.9 L 267.7 293.4 L 278.3 292.9 Z" fill="#0f172a"/>
<rect x="332" y="278" width="210" height="13" rx="6" fill="#334155"/>
<rect x="332" y="304" width="160" height="11" rx="5" fill="#374151"/>
<text x="332" y="340" text-anchor="start" fill="#93c5fd" font-family="system-ui,sans-serif" font-size="13" font-weight="700">Сертификат курса</text>
</svg>
