<svg xmlns="http://www.w3.org/2000/svg" viewBox="0 0 800 450" role="img" aria-labelledby="t">
  <title id="t">Регистрация и вход в Hackpet</title>
  <defs>
    <linearGradient id="bg" x1="0%" y1="0%" x2="100%" y2="100%">
      <stop offset="0%" style="stop-color:#0f172a"/>
      <stop offset="50%" style="stop-color:#1e1b4b"/>
      <stop offset="100%" style="stop-color:#312e81"/>
    </linearGradient>
    <linearGradient id="a" x1="0%" y1="0%" x2="100%" y2="0%">
      <stop offset="0%" style="stop-color:#22d3ee"/>
      <stop offset="100%" style="stop-color:#818cf8"/>
    </linearGradient>
  </defs>
  <rect width="800" height="450" fill="url(#bg)"/>
  <g opacity="0.15" fill="#fff">
    <circle cx="120" cy="360" r="80"/><circle cx="690" cy="90" r="70"/>
  </g>
  <rect x="262" y="78" width="276" height="300" rx="20" fill="#111827" stroke="#334155"/>
  <circle cx="400" cy="138" r="36" fill="#0b1220" stroke="#6366f1" stroke-width="2"/>
  <circle cx="400" cy="128" r="12" fill="#93c5fd"/>
  <path d="M380 158 Q400 134 420 158 Z" fill="#93c5fd"/>
  <rect x="350" y="190" width="100" height="13" rx="6" fill="url(#a)"/>
  <rect x="298" y="220" width="204" height="34" rx="9" fill="#0b1220" stroke="#334155"/>
  <rect x="314" y="233" width="120" height="9" rx="4" fill="#374151"/>
  <rect x="298" y="264" width="204" height="34" rx="9" fill="#0b1220" stroke="#334155"/>
  <g fill="#475569">
    <circle cx="320" cy="281" r="4"/><circle cx="336" cy="281" r="4"/><circle cx="352" cy="281" r="4"/>
    <circle cx="368" cy="281" r="4"/><circle cx="384" cy="281" r="4"/><circle cx="400" cy="281" r="4"/>
  </g>
  <rect x="298" y="312" width="204" height="38" rx="11" fill="url(#a)"/>
  <text x="400" y="337" text-anchor="middle" fill="#0f172a" font-family="system-ui,sans-serif" font-size="17" font-weight="700">Войти</text>
  <text x="400" y="406" text-anchor="middle" fill="#93c5fd" font-family="system-ui,sans-serif" font-size="20" font-weight="600">Регистрация · Вход</text>
</svg>
