<svg xmlns="http://www.w3.org/2000/svg" viewBox="0 0 800 450" role="img" aria-labelledby="t">
  <title id="t">Результаты модуля и сертификат</title>
  <defs>
    <linearGradient id="bg" x1="0%" y1="0%" x2="100%" y2="100%">
      <stop offset="0%" style="stop-color:#0f172a"/>
      <stop offset="50%" style="stop-color:#1e1b4b"/>
      <stop offset="100%" style="stop-color:#312e81"/>
    </linearGradient>
    <linearGradient id="a" x1="0%" y1="0%" x2="100%" y2="0%">
      <stop offset="0%" style="stop-color:#22d3ee"/>
      <stop offset="100%" style="stop-color:#818cf8"/>
    </linearGradient>
  </defs>
  <rect width="800" height="450" fill="url(#bg)"/>
  <g opacity="0.13" fill="#fff"><circle cx='110' cy='80' r='64'/><circle cx='710' cy='372' r='110'/></g>
<rect x="80" y="110" width="300" height="250" rx="14" fill="#111827" stroke="#334155"/>
<text x="104" y="146" text-anchor="start" fill="#93c5fd" font-family="system-ui,sans-serif" font-size="15" font-weight="700">Результаты</text>
<circle cx="120" cy="185" r="13" fill="#34d399"/><path d="M114.2 185.0 L119.0 189.9 L126.5 179.8" fill="none" stroke="#0f172a" stroke-width="3.6" stroke-linecap="round" stroke-linejoin="round"/>
<rect x="144" y="179" width="196" height="12" rx="6" fill="#334155"/>
<circle cx="120" cy="233" r="13" fill="#34d399"/><path d="M114.2 233.0 L119.0 237.9 L126.5 227.8" fill="none" stroke="#0f172a" stroke-width="3.6" stroke-linecap="round" stroke-linejoin="round"/>
<rect x="144" y="227" width="196" height="12" rx="6" fill="#334155"/>
<circle cx="120" cy="281" r="13" fill="#34d399"/><path d="M114.2 281.0 L119.0 285.9 L126.5 275.8" fill="none" stroke="#0f172a" stroke-width="3.6" stroke-linecap="round" stroke-linejoin="round"/>
<rect x="144" y="275" width="196" height="12" rx="6" fill="#334155"/>
<rect x="420" y="110" width="300" height="250" rx="14" fill="#0b1220" stroke="#6366f1"/>
<circle cx="570" cy="186" r="40" fill="url(#a)"/>
<path d="M 570.0 166.0 L 574.4 177.9 L 587.1 178.4 L 577.2 186.3 L 580.6 198.6 L 570.0 191.6 L 559.4 198.6 L 562.8 186.3 L 552.9 178.4 L 565.6 177.9 Z" fill="#0f172a"/>
<path d="M552 214 L545 256 L570 240 L595 256 L588 214 Z" fill="#6366f1"/>
<rect x="470" y="284" width="200" height="12" rx="6" fill="#334155"/>
<rect x="498" y="308" width="144" height="10" rx="5" fill="#374151"/>
<text x="570" y="344" text-anchor="middle" fill="#93c5fd" font-family="system-ui,sans-serif" font-size="14" font-weight="700">Сертификат</text>
</svg>
