<svg xmlns="http://www.w3.org/2000/svg" viewBox="0 0 800 450" role="img" aria-labelledby="t">
  <title id="t">Чекпоинт-квиз с мгновенной обратной связью</title>
  <defs>
    <linearGradient id="bg" x1="0%" y1="0%" x2="100%" y2="100%">
      <stop offset="0%" style="stop-color:#0f172a"/>
      <stop offset="50%" style="stop-color:#1e1b4b"/>
      <stop offset="100%" style="stop-color:#312e81"/>
    </linearGradient>
    <linearGradient id="a" x1="0%" y1="0%" x2="100%" y2="0%">
      <stop offset="0%" style="stop-color:#22d3ee"/>
      <stop offset="100%" style="stop-color:#818cf8"/>
    </linearGradient>
  </defs>
  <rect width="800" height="450" fill="url(#bg)"/>
  <g opacity="0.13" fill="#fff"><circle cx='110' cy='80' r='64'/><circle cx='710' cy='372' r='110'/></g>
<rect x="170" y="84" width="460" height="300" rx="18" fill="#111827" stroke="#334155"/>
<rect x="196" y="116" width="320" height="14" rx="7" fill="url(#a)"/>
<rect x="196" y="140" width="230" height="12" rx="6" fill="#374151"/>
<rect x="196" y="178" width="408" height="44" rx="10" fill="#0b1220" stroke="#334155" stroke-width="2"/>
<rect x="218" y="195" width="180" height="10" rx="5" fill="#475569"/>
<rect x="196" y="236" width="408" height="44" rx="10" fill="#06281f" stroke="#34d399" stroke-width="2"/>
<rect x="218" y="253" width="150" height="10" rx="5" fill="#475569"/>
<circle cx="578" cy="258" r="13" fill="#34d399"/><path d="M572.1 258.0 L577.0 262.9 L584.5 252.8" fill="none" stroke="#0f172a" stroke-width="3.6" stroke-linecap="round" stroke-linejoin="round"/>
<rect x="196" y="294" width="408" height="44" rx="10" fill="#0b1220" stroke="#334155" stroke-width="2"/>
<rect x="218" y="311" width="180" height="10" rx="5" fill="#475569"/>
</svg>
